<svg xmlns="http://www.w3.org/2000/svg" xmlns:xlink="http://www.w3.org/1999/xlink" width="500" zoomAndPan="magnify" viewBox="0 0 375 149.999998" height="200" preserveAspectRatio="xMidYMid meet" version="1.0"><defs><g/><clipPath id="1b0d4cc649"><rect x="0" width="310" y="0" height="150"/></clipPath></defs><g transform="matrix(1, 0, 0, 1, 0, -0.000000000000007527)"><g clip-path="url(#1b0d4cc649)"><g fill="#f6f4f0" fill-opacity="1"><g transform="translate(-1.370725, 117.279368)"><g><path d="M 52.78125 0 C 47.4375 0 42.734375 -1.1875 38.671875 -3.5625 C 34.617188 -5.945312 31.441406 -9.144531 29.140625 -13.15625 C 26.847656 -17.175781 25.703125 -21.648438 25.703125 -26.578125 L 25.703125 -70.203125 L 1.875 -70.203125 L 1.875 -87.765625 L 70.453125 -87.765625 L 70.453125 -70.203125 L 46.765625 -70.203125 L 46.765625 -24.703125 C 46.765625 -22.773438 47.429688 -21.097656 48.765625 -19.671875 C 50.109375 -18.253906 51.78125 -17.546875 53.78125 -17.546875 L 60.6875 -17.546875 L 60.6875 0 Z M 52.78125 0 "/></g></g></g><g fill="#f6f4f0" fill-opacity="1"><g transform="translate(60.679739, 117.279368)"><g><path d="M 7.640625 0 L 7.640625 -87.765625 L 47.765625 -87.765625 C 53.703125 -87.765625 59.113281 -86.46875 64 -83.875 C 68.894531 -81.28125 72.78125 -77.6875 75.65625 -73.09375 C 78.539062 -68.5 79.984375 -63.191406 79.984375 -57.171875 C 79.984375 -51.566406 78.644531 -46.53125 75.96875 -42.0625 C 73.300781 -37.59375 69.796875 -33.976562 65.453125 -31.21875 L 72.46875 -19.3125 C 72.882812 -18.726562 73.363281 -18.265625 73.90625 -17.921875 C 74.445312 -17.585938 75.179688 -17.421875 76.109375 -17.421875 L 83.875 -17.421875 L 83.875 0 L 71.59375 0 C 67.832031 0 64.40625 -0.894531 61.3125 -2.6875 C 58.21875 -4.488281 55.789062 -6.851562 54.03125 -9.78125 L 44.640625 -26.453125 C 44.046875 -26.453125 43.4375 -26.453125 42.8125 -26.453125 C 42.1875 -26.453125 41.539062 -26.453125 40.875 -26.453125 L 28.703125 -26.453125 L 28.703125 0 Z M 28.703125 -43.875 L 45.390625 -43.875 C 47.804688 -43.875 50.0625 -44.394531 52.15625 -45.4375 C 54.25 -46.488281 55.898438 -47.992188 57.109375 -49.953125 C 58.316406 -51.921875 58.921875 -54.285156 58.921875 -57.046875 C 58.921875 -59.804688 58.296875 -62.164062 57.046875 -64.125 C 55.796875 -66.09375 54.144531 -67.597656 52.09375 -68.640625 C 50.039062 -69.679688 47.804688 -70.203125 45.390625 -70.203125 L 28.703125 -70.203125 Z M 28.703125 -43.875 "/></g></g></g><g fill="#f6f4f0" fill-opacity="1"><g transform="translate(136.14353, 117.279368)"><g><path d="M 50.15625 1.625 C 43.132812 1.625 36.78125 0.457031 31.09375 -1.875 C 25.40625 -4.21875 20.515625 -7.476562 16.421875 -11.65625 C 12.328125 -15.832031 9.171875 -20.679688 6.953125 -26.203125 C 4.742188 -31.722656 3.640625 -37.65625 3.640625 -44 C 3.640625 -50.351562 4.742188 -56.285156 6.953125 -61.796875 C 9.171875 -67.316406 12.304688 -72.144531 16.359375 -76.28125 C 20.410156 -80.425781 25.300781 -83.644531 31.03125 -85.9375 C 36.757812 -88.238281 43.132812 -89.390625 50.15625 -89.390625 C 57.09375 -89.390625 63.421875 -88.238281 69.140625 -85.9375 C 74.867188 -83.644531 79.757812 -80.425781 83.8125 -76.28125 C 87.863281 -72.144531 91.019531 -67.296875 93.28125 -61.734375 C 95.539062 -56.179688 96.671875 -50.269531 96.671875 -44 C 96.671875 -37.65625 95.539062 -31.722656 93.28125 -26.203125 C 91.019531 -20.679688 87.863281 -15.832031 83.8125 -11.65625 C 79.757812 -7.476562 74.867188 -4.21875 69.140625 -1.875 C 63.421875 0.457031 57.09375 1.625 50.15625 1.625 Z M 50.15625 -16.296875 C 53.832031 -16.296875 57.234375 -16.984375 60.359375 -18.359375 C 63.492188 -19.742188 66.191406 -21.6875 68.453125 -24.1875 C 70.710938 -26.695312 72.46875 -29.644531 73.71875 -33.03125 C 74.96875 -36.414062 75.59375 -40.070312 75.59375 -44 C 75.59375 -47.9375 74.96875 -51.570312 73.71875 -54.90625 C 72.46875 -58.25 70.710938 -61.175781 68.453125 -63.6875 C 66.191406 -66.195312 63.492188 -68.140625 60.359375 -69.515625 C 57.234375 -70.898438 53.832031 -71.59375 50.15625 -71.59375 C 46.394531 -71.59375 42.96875 -70.898438 39.875 -69.515625 C 36.78125 -68.140625 34.082031 -66.195312 31.78125 -63.6875 C 29.476562 -61.175781 27.722656 -58.226562 26.515625 -54.84375 C 25.304688 -51.46875 24.703125 -47.851562 24.703125 -44 C 24.703125 -40.070312 25.304688 -36.414062 26.515625 -33.03125 C 27.722656 -29.644531 29.476562 -26.695312 31.78125 -24.1875 C 34.082031 -21.6875 36.78125 -19.742188 39.875 -18.359375 C 42.96875 -16.984375 46.394531 -16.296875 50.15625 -16.296875 Z M 50.15625 -16.296875 "/></g></g></g><g fill="#f6f4f0" fill-opacity="1"><g transform="translate(226.023527, 117.279368)"><g><path d="M 33.71875 0 L 33.71875 -23.953125 C 28.375 -25.203125 23.71875 -27.394531 19.75 -30.53125 C 15.78125 -33.664062 12.707031 -37.632812 10.53125 -42.4375 C 8.351562 -47.25 7.265625 -52.785156 7.265625 -59.046875 L 7.265625 -87.765625 L 27.828125 -87.765625 L 27.828125 -57.921875 C 27.828125 -54.742188 28.492188 -51.835938 29.828125 -49.203125 C 31.171875 -46.578125 33.078125 -44.488281 35.546875 -42.9375 C 38.015625 -41.394531 40.914062 -40.625 44.25 -40.625 C 47.59375 -40.625 50.5 -41.394531 52.96875 -42.9375 C 55.4375 -44.488281 57.335938 -46.578125 58.671875 -49.203125 C 60.015625 -51.835938 60.6875 -54.742188 60.6875 -57.921875 L 60.6875 -87.765625 L 81.25 -87.765625 L 81.25 -59.046875 C 81.25 -52.785156 80.160156 -47.25 77.984375 -42.4375 C 75.804688 -37.632812 72.710938 -33.644531 68.703125 -30.46875 C 64.691406 -27.289062 60.007812 -25.117188 54.65625 -23.953125 L 54.65625 0 Z M 33.71875 0 "/></g></g></g></g></g></svg>